<svg version="1" xmlns="http://www.w3.org/2000/svg" width="933.333" height="933.333" viewBox="0 0 700.000000 700.000000"><path d="M294.6 230.9L63.7 461.8 31.9 580.7C14.5 646 .3 699.6.4 699.6c0 .1 53.6-14.2 119-31.6l118.9-31.8 230.8-230.8L700 174.5l-16.2-16.2-16.3-16.3 16.3-16.3 16.2-16.2-54.7-54.7L590.5 0l-16.2 16.2L558 32.5l-16.3-16.3L525.5 0 294.6 230.9zM600.3 99.8l74.7 74.7-26.3 26.3-26.2 26.2-75-75-75-75 26-26c14.3-14.3 26.2-26 26.5-26 .3 0 34.1 33.6 75.3 74.8zM633 67.5l42.5 42.5-9.5 9.5c-5.2 5.2-9.9 9.5-10.5 9.5-1.3 0-84.5-83.2-84.5-84.5 0-1 18-19.5 19-19.5.3 0 19.6 19.1 43 42.5zM535.5 165l75 75-90.8 90.8-90.7 90.7-75.2-75.3-75.3-75.2 90.5-90.5c49.8-49.8 90.7-90.5 91-90.5.3 0 34.3 33.8 75.5 75zM415 434.5c0 .6-40.5 41.5-90 91l-90 90-75.2-75.3L84.5 465l90.5-90.5 90.5-90.5 74.7 74.7c41.2 41.2 74.8 75.2 74.8 75.8zM218.7 623.6c-.4.4-113.1 30.4-114.2 30.4-1.4 0-57.9-56.6-58.3-58.3-.1-.7 6.5-26.6 14.8-57.6 8.2-30.9 15-56.6 15-56.9 0-.4 32.2 31.5 71.5 70.8s71.3 71.5 71.2 71.6z"/></svg>