<svg xmlns="http://www.w3.org/2000/svg" viewBox="0 0 121.87 121.87"><defs><style>.cls-1{fill:#fff;}.cls-2,.cls-3{fill:#efef65;}.cls-3,.cls-4,.cls-5{stroke:#000;stroke-miterlimit:10;stroke-width:3px;}.cls-4{fill:#f76bd2;}.cls-5{fill:none;}</style></defs><title>brick-a-pic-icon</title><g id="Layer_2" data-name="Layer 2"><g id="Layer_1-2" data-name="Layer 1"><polygon class="cls-1" points="2.03 119.62 41.16 109.13 12.52 80.48 2.03 119.62"/><polygon points="2.03 119.62 19.12 115.04 6.61 102.53 2.03 119.62"/><rect class="cls-2" x="23.74" y="54.64" width="40" height="47" transform="translate(68.06 -8.04) rotate(45)"/><rect class="cls-3" x="57.32" y="20.55" width="40" height="48" transform="translate(54.15 -41.63) rotate(45)"/><rect class="cls-4" x="96.44" y="9.44" width="24" height="8" transform="translate(41.26 -72.74) rotate(45)"/><polygon class="cls-5" points="46.36 47.22 12.42 81.17 2.12 119.75 40.7 109.45 74.65 75.51 46.36 47.22"/><line class="cls-5" x1="12.62" y1="80.96" x2="40.91" y2="109.25"/><rect class="cls-4" x="79.95" y="13.92" width="40" height="16" transform="translate(44.77 -64.26) rotate(45)"/></g></g></svg>